<svg width="199" height="47" viewBox="0 0 199 47" fill="none" xmlns="http://www.w3.org/2000/svg">
<path d="M122.705 9.90037H104.672V4.10403H134.726V9.90037L117.695 20.8935H134.726V26.8897H104.672V20.8935L122.705 9.90037Z" fill="#282626"/>
<path d="M35.2344 4.10403H66.3253V9.9632H42.7919V12.5673H66.3253V18.4264H42.7919V21.0305H66.3253V26.8897H35.2344V4.10403Z" fill="#282626"/>
<path d="M70.4688 4.10403H101.56V9.9632H78.0262V12.5673H101.56V18.4264H78.0262V21.0305H101.56V26.8897H70.4688V4.10403Z" fill="#282626"/>
<path d="M0 4.10403H26.0882C26.9739 4.10403 27.7872 4.24508 28.5279 4.52719C29.2688 4.8093 29.9048 5.23246 30.4364 5.79668C30.9677 6.33918 31.3784 7.01191 31.6682 7.81483C31.9741 8.61776 32.1273 9.55088 32.1273 10.6142C32.1273 11.7209 31.942 12.6866 31.5716 13.5112C31.2173 14.3359 30.702 14.9977 30.0257 15.4969C30.702 15.996 31.2173 16.6578 31.5716 17.4825C31.942 18.3071 32.1273 19.2728 32.1273 20.3795C32.1273 21.4428 31.9741 22.376 31.6682 23.1789C31.3784 23.9817 30.9677 24.6654 30.4364 25.2296C29.9048 25.772 29.2688 26.1843 28.5279 26.4665C27.7872 26.7485 26.9739 26.8897 26.0882 26.8897H0V4.10403ZM0 12.5673H23.4311C24.1397 12.5673 24.494 12.1333 24.494 11.2652C24.494 10.3972 24.1397 9.9632 23.4311 9.9632H0V12.5673ZM23.4311 21.0305C24.1397 21.0305 24.494 20.5965 24.494 19.7285C24.494 18.8605 24.1397 18.4264 23.4311 18.4264H7.63322V21.0305H23.4311Z" fill="#282626"/>
<path d="M142.781 26.8897L148.335 19.2403L136.805 4.10403H145.075L152.501 13.674H152.622L159.625 4.10403H167.896L150.932 26.8897H142.781Z" fill="#282626"/>
<path fill-rule="evenodd" clip-rule="evenodd" d="M192.815 5.83855C192.513 5.58969 192.189 5.37018 191.843 5.18001L192.31 1.19803C192.389 0.608719 191.943 0.0898615 191.371 0.00888374C190.773 -0.0685712 190.246 0.370499 190.163 0.933988L189.753 4.356C187.466 3.84778 185.01 4.44072 183.198 6.02559C182.722 6.06318 182.273 6.09724 181.823 6.1313C180.239 6.26519 178.733 6.38852 176.24 6.9075C173.725 7.45582 171.639 8.60401 170.322 10.0961C169.005 11.5882 168.414 13.5088 169.127 15.3859L169.134 15.4375L169.167 15.4857C170.023 17.2383 171.854 18.1234 173.915 18.3463C173.003 21.2307 172.985 24.7842 173.84 28.0888C176.953 28.1966 180.714 27.7703 183.643 26.5353C184.224 28.43 185.377 30.0112 187.211 30.5276L187.323 30.5652C189.326 30.9537 191.159 30.1025 192.443 28.5623C193.73 27.0479 194.551 24.8596 194.708 22.3134C194.843 19.7965 194.719 18.3138 194.614 16.776C194.573 16.2817 194.531 15.7875 194.509 15.2381C195.771 13.1485 195.905 10.6316 194.918 8.5021L198.219 7.45365C198.782 7.27284 199.101 6.67765 198.918 6.12356C198.734 5.56948 198.13 5.25606 197.568 5.43687L193.703 6.66613C193.391 6.33979 193.116 6.08741 192.815 5.83855ZM192.474 17.7211L187.176 24.0616C186.741 24.5935 186.192 25.0619 185.579 25.4599C185.974 27.1691 186.831 28.1587 187.75 28.4298C188.763 28.6094 189.829 28.2032 190.754 27.1583C191.671 26.0618 192.395 24.3338 192.497 22.1632C192.628 20.1992 192.565 18.9713 192.474 17.7211ZM176.719 9.02641C178.665 8.60724 179.927 8.46397 181.193 8.34653L175.756 14.8374C175.39 15.2812 175.079 15.7437 174.776 16.2579C172.845 16.2016 171.63 15.5231 171.157 14.6134C170.809 13.6343 171.06 12.5484 171.959 11.5071C172.906 10.4329 174.537 9.47729 176.719 9.02641ZM178.569 22.2718C180.433 23.7837 182.105 24.4798 182.303 24.5584C180.204 25.419 177.865 25.891 175.89 25.7091C175.644 23.5327 175.578 21.3057 175.984 19.4098C176.158 19.7021 176.913 20.9159 178.569 22.2718ZM179.224 14.0296L177.781 15.7753C177.911 15.942 179.486 18.0714 181.377 19.5798C183.182 21.0472 185.479 22.2116 185.792 22.3536L187.374 20.4577C186.972 20.2487 184.853 19.2181 182.966 17.7355C181.325 16.483 179.673 14.5743 179.224 14.0296ZM189.806 17.5533L192.17 14.7369C194.005 12.544 193.665 9.3016 191.44 7.49619C189.215 5.69078 185.923 6.02783 184.087 8.2208L181.682 11.1217C182.038 11.5736 183.541 13.3708 185.282 14.7677C187.169 16.2503 189.664 17.4934 189.806 17.5533Z" fill="#282626"/>
<path d="M191.429 7.49621C193.654 9.30162 193.994 12.544 192.159 14.737L189.799 17.5791C189.657 17.5193 187.136 16.2797 185.245 14.7713C183.53 13.3709 182.023 11.5478 181.667 11.0959L184.073 8.195C185.908 6.00203 189.204 5.6908 191.429 7.49621Z" fill="#FFDD84"/>
<path d="M187.166 24.0618L192.464 17.7212C192.556 18.9714 192.618 20.1994 192.488 22.1634C192.36 24.3375 191.662 26.062 190.744 27.1585C189.85 28.2256 188.784 28.6318 187.741 28.43C186.818 28.133 185.965 27.1692 185.569 25.46C186.208 25.0585 186.732 24.5936 187.166 24.0618Z" fill="#FCFCF8"/>
<path d="M187.369 20.4835L185.786 22.3794C185.469 22.2116 183.172 21.0471 181.371 19.6056C179.451 18.0749 177.906 15.9678 177.772 15.7752L179.241 14.026C179.686 14.5449 181.342 16.4795 182.987 17.7578C184.847 19.2439 186.969 20.3004 187.369 20.4835Z" fill="#FFDD84"/>
<path d="M181.166 8.35046L175.756 14.8374C175.39 15.2812 175.079 15.7437 174.776 16.2579C172.819 16.2051 171.6 15.5008 171.157 14.6134C170.812 13.6601 171.034 12.5519 171.959 11.5071C172.906 10.4329 174.537 9.47769 176.689 9.00451C178.664 8.60765 179.927 8.46438 181.166 8.35046Z" fill="#FCFCF8"/>
<path d="M178.564 22.2713C180.402 23.7868 182.1 24.4793 182.301 24.5838C180.203 25.4444 177.864 25.9164 175.889 25.7345C175.642 23.5581 175.576 21.3311 175.983 19.4352C176.153 19.7017 176.908 20.9155 178.564 22.2713Z" fill="#FFDD84"/>
<path d="M86.5762 43.4221V36.8971H83.9062V35.5171H90.7912V36.8971H88.1212V43.4221H86.5762Z" fill="#282626"/>
<path d="M76.0938 43.4221V35.5171H77.6387V38.8471H81.2838V35.5171H82.8288V43.4221H81.2838V40.2121H77.6387V43.4221H76.0938Z" fill="#282626"/>
<path d="M70.9597 43.5126C70.1297 43.5126 69.4347 43.3426 68.8747 43.0026C68.3147 42.6626 67.8897 42.1926 67.5997 41.5926C67.3197 40.9826 67.1797 40.2826 67.1797 39.4926C67.1797 38.6926 67.3247 37.9876 67.6147 37.3776C67.9147 36.7676 68.3447 36.2876 68.9047 35.9376C69.4747 35.5876 70.1597 35.4126 70.9597 35.4126C71.5497 35.4126 72.0647 35.5226 72.5047 35.7426C72.9547 35.9526 73.3297 36.2476 73.6297 36.6276C73.9397 36.9976 74.1647 37.4176 74.3047 37.8876C74.4447 38.3576 74.5097 38.8526 74.4997 39.3726C74.4897 39.4826 74.4797 39.5876 74.4697 39.6876C74.4697 39.7876 74.4647 39.8926 74.4547 40.0026H68.7397C68.7697 40.4026 68.8697 40.7676 69.0397 41.0976C69.2197 41.4276 69.4697 41.6926 69.7897 41.8926C70.1097 42.0826 70.5047 42.1776 70.9747 42.1776C71.2347 42.1776 71.4847 42.1476 71.7247 42.0876C71.9747 42.0176 72.1947 41.9126 72.3847 41.7726C72.5847 41.6226 72.7247 41.4326 72.8047 41.2026H74.3647C74.2347 41.7326 73.9997 42.1726 73.6597 42.5226C73.3297 42.8626 72.9247 43.1126 72.4447 43.2726C71.9747 43.4326 71.4797 43.5126 70.9597 43.5126ZM68.7697 38.7726H72.9697C72.9597 38.3826 72.8697 38.0376 72.6997 37.7376C72.5297 37.4276 72.2947 37.1876 71.9947 37.0176C71.6947 36.8376 71.3347 36.7476 70.9147 36.7476C70.4547 36.7476 70.0697 36.8426 69.7597 37.0326C69.4597 37.2226 69.2247 37.4726 69.0547 37.7826C68.8947 38.0826 68.7997 38.4126 68.7697 38.7726Z" fill="#282626"/>
<path d="M56.8438 43.4221V35.5171H58.8237L61.2537 39.2971L63.6387 35.5171H65.5888V43.4221H64.0438V37.3921L61.4487 41.5321H60.9987L58.3888 37.3771V43.4221H56.8438Z" fill="#282626"/>
<path d="M47.6719 43.4371V42.0571C47.8819 42.0571 48.0619 42.0121 48.2119 41.9221C48.3719 41.8221 48.5119 41.6821 48.6319 41.5021C48.7619 41.3021 48.8619 41.0221 48.9319 40.6621C49.0019 40.3021 49.0519 39.9271 49.0819 39.5371C49.1219 39.0671 49.1469 38.6021 49.1569 38.1421C49.1769 37.6821 49.1919 37.2321 49.2019 36.7921C49.2219 36.3521 49.2319 35.9271 49.2319 35.5171H54.9469V43.4221H53.4019V36.8971H50.7019C50.6919 37.2271 50.6769 37.5721 50.6569 37.9321C50.6469 38.2921 50.6319 38.6521 50.6119 39.0121C50.5919 39.3621 50.5669 39.7121 50.5369 40.0621C50.5169 40.4621 50.4619 40.8871 50.3719 41.3371C50.2919 41.7871 50.1369 42.1921 49.9069 42.5521C49.6769 42.9021 49.3919 43.1371 49.0519 43.2571C48.7219 43.3771 48.2619 43.4371 47.6719 43.4371Z" fill="#282626"/>
<path d="M39.3516 43.4221V35.5171H40.8966V41.1121C40.9666 40.9921 41.0566 40.8621 41.1666 40.7221C41.2766 40.5721 41.3616 40.4521 41.4216 40.3621L45.0366 35.5171H46.4766V43.4221H44.9316V37.8571C44.8516 37.9871 44.7666 38.1171 44.6766 38.2471C44.5866 38.3671 44.5016 38.4771 44.4216 38.5771L40.8066 43.4221H39.3516Z" fill="#282626"/>
<path d="M32.0763 46.1826V43.5126C31.4663 43.4826 30.9063 43.3876 30.3963 43.2276C29.8863 43.0576 29.4463 42.8126 29.0763 42.4926C28.7062 42.1626 28.4163 41.7526 28.2063 41.2626C28.0063 40.7626 27.9062 40.1776 27.9062 39.5076C27.9062 38.6076 28.0763 37.8576 28.4163 37.2576C28.7563 36.6576 29.2362 36.2076 29.8563 35.9076C30.4862 35.5976 31.2263 35.4376 32.0763 35.4276V32.9976H33.6362V35.4276C34.4963 35.4376 35.2363 35.5976 35.8563 35.9076C36.4863 36.2176 36.9713 36.6776 37.3113 37.2876C37.6513 37.8876 37.8213 38.6376 37.8213 39.5376C37.8213 40.4176 37.6413 41.1476 37.2812 41.7276C36.9313 42.3076 36.4413 42.7426 35.8113 43.0326C35.1813 43.3126 34.4562 43.4726 33.6362 43.5126V46.1826H32.0763ZM32.0763 42.1776V36.7926C31.2163 36.7926 30.5613 37.0276 30.1113 37.4976C29.6713 37.9576 29.4513 38.6176 29.4513 39.4776C29.4513 40.0476 29.5463 40.5376 29.7363 40.9476C29.9363 41.3476 30.2313 41.6526 30.6213 41.8626C31.0113 42.0626 31.4963 42.1676 32.0763 42.1776ZM33.6362 42.1776C34.2262 42.1676 34.7163 42.0626 35.1063 41.8626C35.4963 41.6526 35.7863 41.3476 35.9762 40.9476C36.1763 40.5376 36.2763 40.0476 36.2763 39.4776C36.2763 38.6176 36.0513 37.9576 35.6012 37.4976C35.1613 37.0276 34.5062 36.7926 33.6362 36.7926V42.1776Z" fill="#282626"/>
<path d="M19.0938 43.4371V42.0571C19.3037 42.0571 19.4838 42.0121 19.6338 41.9221C19.7938 41.8221 19.9338 41.6821 20.0538 41.5021C20.1838 41.3021 20.2838 41.0221 20.3538 40.6621C20.4237 40.3021 20.4738 39.9271 20.5038 39.5371C20.5438 39.0671 20.5688 38.6021 20.5788 38.1421C20.5988 37.6821 20.6138 37.2321 20.6238 36.7921C20.6438 36.3521 20.6538 35.9271 20.6538 35.5171H26.3688V43.4221H24.8238V36.8971H22.1238C22.1138 37.2271 22.0988 37.5721 22.0788 37.9321C22.0688 38.2921 22.0538 38.6521 22.0338 39.0121C22.0138 39.3621 21.9888 39.7121 21.9588 40.0621C21.9388 40.4621 21.8838 40.8871 21.7938 41.3371C21.7138 41.7871 21.5588 42.1921 21.3288 42.5521C21.0988 42.9021 20.8138 43.1371 20.4738 43.2571C20.1438 43.3771 19.6838 43.4371 19.0938 43.4371Z" fill="#282626"/>
<path d="M11.7459 46.8871V45.3571C12.2059 45.3571 12.5759 45.3021 12.8559 45.1921C13.1459 45.0821 13.3859 44.9021 13.5759 44.6521C13.7659 44.4121 13.9509 44.0971 14.1309 43.7071L10.7109 35.5171H12.5259L15.0009 41.9221L16.9959 35.5171H18.7209L16.5459 41.9371C16.4359 42.2771 16.3059 42.6471 16.1559 43.0471C16.0159 43.4471 15.8559 43.8471 15.6759 44.2471C15.5059 44.6471 15.3109 45.0171 15.0909 45.3571C14.8709 45.6971 14.6259 45.9721 14.3559 46.1821C14.1359 46.3621 13.9159 46.5021 13.6959 46.6021C13.4759 46.7121 13.2159 46.7871 12.9159 46.8271C12.6159 46.8671 12.2259 46.8871 11.7459 46.8871Z" fill="#282626"/>
<path d="M4.17 46.1826V43.5126C3.56 43.4826 3 43.3876 2.49 43.2276C1.98 43.0576 1.54 42.8126 1.17 42.4926C0.8 42.1626 0.51 41.7526 0.3 41.2626C0.1 40.7626 0 40.1776 0 39.5076C0 38.6076 0.17 37.8576 0.51 37.2576C0.85 36.6576 1.33 36.2076 1.95 35.9076C2.58 35.5976 3.32 35.4376 4.17 35.4276V32.9976H5.73V35.4276C6.59 35.4376 7.33 35.5976 7.95 35.9076C8.58 36.2176 9.065 36.6776 9.405 37.2876C9.745 37.8876 9.915 38.6376 9.915 39.5376C9.915 40.4176 9.735 41.1476 9.375 41.7276C9.025 42.3076 8.535 42.7426 7.905 43.0326C7.275 43.3126 6.55 43.4726 5.73 43.5126V46.1826H4.17ZM4.17 42.1776V36.7926C3.31 36.7926 2.655 37.0276 2.205 37.4976C1.765 37.9576 1.545 38.6176 1.545 39.4776C1.545 40.0476 1.64 40.5376 1.83 40.9476C2.03 41.3476 2.325 41.6526 2.715 41.8626C3.105 42.0626 3.59 42.1676 4.17 42.1776ZM5.73 42.1776C6.32 42.1676 6.81 42.0626 7.2 41.8626C7.59 41.6526 7.88 41.3476 8.07 40.9476C8.27 40.5376 8.37 40.0476 8.37 39.4776C8.37 38.6176 8.145 37.9576 7.695 37.4976C7.255 37.0276 6.6 36.7926 5.73 36.7926V42.1776Z" fill="#282626"/>
</svg>
